PathFileType	4	(X/Y/Z)	C:\Users\u0145647\OneDrive - KU Leuven\KU Leuven\c3d2osim\CP4\T0\Data\Processed\ViconC3D_CP4_2\CP4_T0_10_gapFilled.trc
DataRate	CameraRate	NumFrames	NumMarkers	Units	OrigDataRate	OrigDataStartFrame	OrigNumFrames
100.000000	100.000000	5	47	mm	100.000000	238	633
Frame#	Time	C7			T10			CLAV			STRN			LSHO			RSHO			RBAK			LASI			RASI			LPSI			RPSI			LLAT			RLAT			LF1			LF2			LF3			LTHI			LKNE			LMEK			RF1			RF2			RF3			RTHI			RKNE			RMEK			LT1			LT2			LT3			LTIB			LANK			LMM			RT1			RT2			RT3			RTIB			RANK			RMM			LHEE			LSTL			LLCA			LTOE			LCM5			RHEE			RSTL			RLCA			RTOE			RCM5
		X1	Y1	Z1	X2	Y2	Z2	X3	Y3	Z3	X4	Y4	Z4	X5	Y5	Z5	X6	Y6	Z6	X7	Y7	Z7	X8	Y8	Z8	X9	Y9	Z9	X10	Y10	Z10	X11	Y11	Z11	X12	Y12	Z12	X13	Y13	Z13	X14	Y14	Z14	X15	Y15	Z15	X16	Y16	Z16	X17	Y17	Z17	X18	Y18	Z18	X19	Y19	Z19	X20	Y20	Z20	X21	Y21	Z21	X22	Y22	Z22	X23	Y23	Z23	X24	Y24	Z24	X25	Y25	Z25	X26	Y26	Z26	X27	Y27	Z27	X28	Y28	Z28	X29	Y29	Z29	X30	Y30	Z30	X31	Y31	Z31	X32	Y32	Z32	X33	Y33	Z33	X34	Y34	Z34	X35	Y35	Z35	X36	Y36	Z36	X37	Y37	Z37	X38	Y38	Z38	X39	Y39	Z39	X40	Y40	Z40	X41	Y41	Z41	X42	Y42	Z42	X43	Y43	Z43	X44	Y44	Z44	X45	Y45	Z45	X46	Y46	Z46	X47	Y47	Z47

238	2.37	-64.69	1392	-106.97	-67.481	1134.1	-141.73	57.806	1321.3	-98.419	104.85	1176.8	-108.19	30.846	1370.3	-314.18	-39.235	1330.4	87.957	-106.96	1291.6	1.8936	131.62	888.14	-214.52	110.99	899.85	-13.305	-46.813	918.47	-170.68	-56.537	925.02	-96.779	75.52	957.32	-272.14	29.895	960.09	24.765	82.491	612.86	-265.66	73.941	658.53	-271.79	50.488	611.52	-279.07	64.948	537.67	-315.89	34.117	408.01	-246.34	NaN	NaN	NaN	124.72	626.2	13.191	134.85	662.66	18.475	76.73	646.75	18.124	150.82	564.18	42.31	201.57	461.16	-43.981	NaN	NaN	NaN	-128.76	320.04	-263.66	-68.376	314.71	-251.33	-99.717	354.84	-263.77	-141.71	233.89	-284.43	-312.08	168.14	-231.22	-292.37	167.88	-145.29	171.33	314.2	-23.866	198.18	355.17	-41.509	149.89	362.36	-21.267	186.42	241.47	15.335	134.44	69.255	-39.7	136.78	84.55	-125.48	-354.11	198.34	-184.85	-316.84	150.5	-147.57	-330.24	146.89	-224.59	-272.09	46.996	-169.35	-284.16	42.865	-215.78	80.065	64.478	-74.063	134.39	48.482	-121.24	140.16	43.91	-43.22	259.16	45.513	-83.965	239.54	30.691	-27.853
239	2.38	-52.523	1392.1	-105.28	-54.36	1134.4	-140.1	70.358	1322.1	-97.823	119.78	1178.2	-108.5	41.699	1371.2	-313.17	-24.721	1330.6	89.62	-93.338	1291.5	4.1174	142.9	888.14	-215.02	123.76	899.11	-13.106	-35.495	919.22	-169.02	-44.248	926.3	-94.977	86.108	956.79	-272.27	44.577	960.28	25.625	96.869	612.89	-267.64	87.272	658.43	-272.55	64.468	611.18	-279.97	79.595	537.77	-318.04	53.136	407.58	-249.86	NaN	NaN	NaN	132.18	625.54	11.593	144.35	661.66	17.223	84.474	646.65	17.778	157.52	562.53	40.609	208.27	460.05	-45.874	NaN	NaN	NaN	-110.31	322.11	-266.58	-50.034	315.78	-254.68	-80.818	356.48	-266.71	-124.49	235.61	-287.01	-295.52	174.1	-233.52	-276.31	173.92	-147.78	175.79	313.57	-25.253	202.88	354.03	-42.986	155.34	362.27	-22.055	190.7	240.83	13.702	134.79	69.432	-40.034	137.07	84.371	-126.3	-335.81	207.53	-187.87	-301.5	158.35	-149.75	-315.1	154.56	-226.82	-264.85	51.458	-168.94	-276.64	46.037	-214.97	79.994	64.887	-74.203	134.33	48.254	-121.39	140.41	44.045	-43.415	259.12	45.109	-84.236	239.68	30.809	-28.143
240	2.39	-40.563	1392.5	-103.59	-41.658	1134.9	-138.38	82.759	1323	-97.353	129.32	1178.1	-108.5	52.325	1372.1	-312.43	-10.212	1331.1	91.236	-79.726	1291.7	6.3024	153.79	887.92	-215.13	135.95	898.77	-13.038	-24.484	920.01	-167.68	-31.783	927.58	-93.745	96.706	956.42	-272.29	58.805	960.4	26.147	111.62	613.68	-269.52	100.68	658.8	-273.57	78.832	611.09	-281.01	94.47	538.87	-320.38	73.137	407.58	-253.11	NaN	NaN	NaN	139.74	624.14	11.05	152.63	661.12	16.665	92.722	647.23	17.043	163.97	561.83	39.848	214.51	459.27	-47.574	NaN	NaN	NaN	-90.64	324.19	-269.56	-30.741	316.73	-257.36	-60.63	358.03	-269.78	-106.08	237.35	-289.03	-278.21	180.35	-236.35	-258.84	179.98	-150.48	180.1	312.91	-26.133	206.58	352.55	-45.749	160.36	361.77	-22.564	194.33	240.24	12.668	135.2	69.552	-40.168	136.79	84.546	-126.33	-316.09	216.63	-190.88	-284.57	165.99	-152.16	-299.13	162.26	-229.31	-255.75	56.413	-170.29	-268.3	50.888	-215.58	80.279	65.446	-73.724	134.22	48.096	-121.49	140.66	44.16	-43.472	259.36	45.089	-84.557	239.77	30.909	-28.336
241	2.4	-28.602	1393.2	-101.97	-29.252	1135.8	-136.8	94.985	1324.2	-96.963	142.42	1179.4	-108.48	62.571	1373.2	-311.86	4.1235	1331.9	92.796	-66.206	1292.1	8.4038	164.62	888.2	-215.34	147.56	898.78	-13.156	-13.509	920.98	-166.93	-21.43	929.73	-93.074	107.41	956.49	-272.38	72.332	960.9	26.456	126.04	614.32	-270.45	114.25	659.35	-274.55	93.447	611.29	-281.92	110.16	539.6	-322.46	93.613	407.91	-256.01	NaN	NaN	NaN	147.07	624.31	11.21	159.72	661.17	17.425	100.34	648.17	16.646	170.21	561.63	39.563	218.91	458.18	-48.232	NaN	NaN	NaN	-69.847	326.22	-272.6	-10.274	318.13	-260.02	-39.593	359.77	-272.66	-86.187	239.16	-291.2	-260.64	187.19	-238.98	-240.96	186.45	-153.06	183.92	312.25	-26.645	211.31	352.05	-45.6	164.92	361.36	-22.437	197.88	239.26	11.832	135.59	69.64	-40.155	136.84	84.565	-126.39	-296.76	224.78	-194.13	-267.1	173.53	-154.91	-281.91	169.5	-232.03	-243.52	63.067	-171.36	-255.33	57.339	-215.81	80.493	65.896	-73.46	134.11	48.028	-121.43	140.86	44.279	-43.41	259.48	45.051	-84.683	239.83	30.899	-28.455
242	2.41	-16.698	1394.1	-100.41	-16.973	1136.8	-135.32	107.07	1325.5	-96.722	155.41	1180.8	-109.2	72.587	1374.4	-311.43	18.357	1332.9	94.12	-52.884	1292.8	10.448	175.34	888.67	-215.38	158.79	899.32	-13.202	-1.2986	921.87	-166.59	-10.156	931.83	-92.951	118.14	957.06	-272.33	85.142	961.94	26.592	141.71	615.62	-272.41	128.25	659.95	-275.56	108.6	611.66	-282.67	126.81	541.16	-324.49	114.62	408.62	-258.4	NaN	NaN	NaN	153.76	625.31	11.631	167.19	661.72	17.893	107.57	649.5	17.124	176.24	562.2	39.954	223.21	457.59	-47.673	NaN	NaN	NaN	-48.335	328.53	-275.58	10.967	319.75	-262.35	-17.736	361.59	-275.85	-65.703	241.31	-292.84	-242.09	193.61	-241.96	-223.21	193.71	-156.04	186.82	311.64	-26.814	213.13	350.95	-46.733	168.66	361.05	-21.819	200.44	238.74	11.676	135.92	69.743	-39.915	136.95	84.707	-126.19	-278.38	231.56	-198.28	-249.23	180.85	-158.08	-263.43	176.03	-235.2	-225.58	70.248	-171.47	-237.61	63.366	-215.87	80.656	66.35	-72.995	134.02	48.164	-121.22	141.05	44.319	-43.237	259.57	45.012	-84.65	239.9	30.864	-28.394
